<?xml version="1.0" encoding="UTF-8" standalone="no"?>
<!-- Created with Inkscape (http://www.inkscape.org/) -->

<svg
   width="88.920937mm"
   height="38.418179mm"
   viewBox="0 0 336.07914 145.20257"
   version="1.1"
   id="svg1"
   xml:space="preserve"
   xmlns="http://www.w3.org/2000/svg"
   xmlns:svg="http://www.w3.org/2000/svg"><defs
     id="defs1" /><g
     id="layer4"
     transform="translate(-418.03666,-745.85375)"><g
       id="g21"><path
         style="font-weight:bold;font-size:40px;line-height:1.25;font-family:'Century Gothic';-inkscape-font-specification:'Century Gothic Bold';letter-spacing:6px;word-spacing:0px;white-space:pre;fill:#383355;fill-opacity:1;stroke-width:3.31906"
         d="m 467.75773,745.8538 q 20.22551,0 34.7464,14.65053 14.58571,14.65055 14.58571,35.71879 0,20.87377 -14.39123,35.32983 -14.32642,14.45607 -34.81124,14.45607 -21.4572,0 -35.65395,-14.84502 -14.19677,-14.84501 -14.19677,-35.26501 0,-13.67815 6.61219,-25.15224 6.6122,-11.47409 18.15111,-18.15111 11.60375,-6.74184 24.95778,-6.74184 z m -0.19448,17.76215 q -13.22438,0 -22.23511,9.20521 -9.01072,9.20521 -9.01072,23.40196 0,15.81739 11.34444,25.0226 8.81625,7.19562 20.22551,7.19562 12.90026,0 21.97581,-9.33486 9.07556,-9.33486 9.07556,-23.01301 0,-13.61333 -9.14039,-23.01301 -9.14037,-9.46451 -22.2351,-9.46451 z"
         id="text1-7-5"
         aria-label="O" /><path
         style="font-weight:bold;font-size:40px;line-height:1.25;font-family:'Century Gothic';-inkscape-font-specification:'Century Gothic Bold';letter-spacing:6px;word-spacing:0px;white-space:pre;fill:#b07c9e;fill-opacity:1;stroke-width:3.44867"
         d="m 478.57702,801.94777 -13.94289,12.32633 q -7.34191,-10.23826 -14.95325,-10.23826 -3.70462,0 -6.06212,2.0207 -2.35749,1.95335 -2.35749,4.44556 0,2.4922 1.68392,4.71499 2.29014,2.9637 13.80818,12.73046 10.77711,9.02583 13.06724,11.38333 5.72535,5.79269 8.08284,11.11389 2.42485,5.25384 2.42485,11.51804 0,12.19161 -8.41962,20.13973 -8.41962,7.94811 -21.95837,7.94811 -10.57504,0 -18.4558,-5.18648 -7.81341,-5.18648 -13.40403,-16.30038 l 15.82888,-9.56469 q 7.13984,13.13461 16.4351,13.13461 4.8497,0 8.15019,-2.82899 3.30049,-2.829 3.30049,-6.53363 0,-3.36784 -2.49221,-6.73569 -2.4922,-3.36785 -10.97918,-10.30562 -16.16567,-13.20196 -20.88066,-20.34179 -4.71498,-7.2072 -4.71498,-14.34703 0,-10.30562 7.8134,-17.64753 7.88077,-7.40926 19.3988,-7.40926 7.40927,0 14.07761,3.43521 6.73569,3.4352 14.5491,12.52839 z"
         id="text1-4-5"
         aria-label="S" /><path
         style="font-weight:bold;font-size:40px;line-height:1.25;font-family:'Century Gothic';-inkscape-font-specification:'Century Gothic Bold';letter-spacing:2px;fill:#383355;fill-opacity:1;stroke-width:1.52456"
         d="m 527.14688,791.04889 h 8.84365 q 7.17616,0 10.33248,1.33995 3.18608,1.31017 5.00245,4.28783 1.84615,2.94788 1.84615,7.08683 0,4.58559 -2.4119,7.6228 -2.38213,3.0372 -6.4913,4.22827 -2.4119,0.68486 -8.78408,0.68486 v 18.55081 h -8.33745 z m 8.33745,17.12153 h 2.65011 q 3.12655,0 4.34739,-0.44665 1.22083,-0.44665 1.9057,-1.45904 0.71464,-1.04218 0.71464,-2.50123 0,-2.53101 -1.96527,-3.6923 -1.42928,-0.86351 -5.30023,-0.86351 h -2.35234 z m 28.29965,-17.12153 h 8.27788 v 43.80135 h -8.27788 z m 43.66437,5.95532 -6.16375,5.44911 q -3.24565,-4.52603 -6.6104,-4.52603 -1.63772,0 -2.67989,0.89329 -1.04218,0.86353 -1.04218,1.96526 0,1.10173 0.74441,2.08436 1.0124,1.31016 6.1042,5.62777 4.76424,3.99006 5.77666,5.03225 2.531,2.56076 3.57319,4.91312 1.07195,2.32258 1.07195,5.09181 0,5.38955 -3.72208,8.90318 -3.72206,3.51364 -9.70715,3.51364 -4.67492,0 -8.1588,-2.29279 -3.45406,-2.29279 -5.92552,-7.20594 l 6.99749,-4.22827 q 3.15632,5.80644 7.26547,5.80644 2.14392,0 3.60299,-1.25063 1.45905,-1.25061 1.45905,-2.88832 0,-1.48883 -1.10173,-2.97765 -1.10175,-1.48884 -4.85359,-4.55582 -7.14638,-5.83621 -9.23074,-8.99253 -2.08436,-3.1861 -2.08436,-6.34242 0,-4.5558 3.45409,-7.80146 3.48384,-3.27541 8.57565,-3.27541 3.27541,0 6.2233,1.5186 2.97765,1.5186 6.43174,5.53844 z m 11.86299,-5.95532 h 8.42676 v 15.06696 l 11.88086,-15.06696 h 10.0347 l -15.30515,19.53344 16.79398,24.26791 h -9.88582 l -13.51857,-19.4441 v 19.4441 h -8.42676 z m 40.83562,0 h 23.91056 v 8.1588 h -15.63271 v 7.92056 h 15.63271 v 8.00989 h -15.63271 v 11.52355 h 15.63271 v 8.18855 h -23.91056 z m 34.73134,0 h 8.33749 v 35.85101 h 12.14881 v 7.95034 h -20.4863 z m 29.58002,0 h 8.36726 v 28.3473 q 0,3.66253 0.62534,5.18113 0.65502,1.5186 2.11415,2.44168 1.48884,0.89329 3.57316,0.89329 2.20345,0 3.78155,-1.01239 1.60797,-1.0124 2.20355,-2.56079 0.62529,-1.57817 0.62529,-5.9851 v -27.30512 h 8.36721 v 26.11406 q 0,6.6104 -0.74442,9.17118 -0.74442,2.5608 -2.85856,4.94292 -2.08438,2.38213 -4.82376,3.54341 -2.73944,1.13151 -6.37225,1.13151 -4.76417,0 -8.30762,-2.17368 -3.51367,-2.20348 -5.03228,-5.47889 -1.51862,-3.30521 -1.51862,-11.13645 z"
         id="text2-2"
         aria-label="PISKELU" /><path
         style="font-weight:bold;font-size:40px;line-height:1.25;font-family:'Century Gothic';-inkscape-font-specification:'Century Gothic Bold';letter-spacing:2px;fill:#b07c9e;fill-opacity:1;stroke-width:1.52948"
         d="m 490.38534,846.00836 h 23.98777 v 8.18513 h -15.68317 v 7.94612 h 15.68317 v 8.03575 h -15.68317 v 11.56073 h 15.68317 v 8.21497 h -23.98777 z m 34.54477,0 h 8.39421 v 28.43878 q 0,3.67435 0.62734,5.19785 0.6572,1.52352 2.12096,2.44956 1.49363,0.89619 3.58472,0.89619 2.21057,0 3.79383,-1.01567 1.61311,-1.01567 2.21058,-2.56905 0.62733,-1.58325 0.62733,-6.00441 v -27.39325 h 8.39422 v 26.19834 q 0,6.63174 -0.74682,9.2008 -0.74683,2.56903 -2.86778,4.95885 -2.09108,2.38981 -4.83938,3.55484 -2.74828,1.13517 -6.39274,1.13517 -4.77963,0 -8.33448,-2.1807 -3.52498,-2.21057 -5.04848,-5.49658 -1.52351,-3.31587 -1.52351,-11.17238 z m 43.08834,0 h 8.87219 q 7.28893,0 10.3658,1.31441 3.10676,1.28452 4.98875,4.30167 1.88198,3.01714 1.88198,7.13957 0,4.33153 -2.09109,7.25905 -2.06121,2.89764 -6.24339,4.3913 l 10.3957,19.5367 h -9.14105 l -9.88785,-18.61067 h -0.77668 v 18.61067 h -8.36436 z m 8.36436,17.17679 h 2.62879 q 4.00293,0 5.49657,-1.04554 1.5235,-1.04554 1.5235,-3.46524 0,-1.43389 -0.74681,-2.47942 -0.74682,-1.07541 -2.00147,-1.5235 -1.25466,-0.47796 -4.6004,-0.47796 h -2.30018 z m 42.99872,-17.17679 h 8.48383 l 16.90794,43.9427 h -8.69294 l -3.43538,-9.05142 h -17.92359 l -3.58473,9.05142 h -8.69294 z m 4.30167,11.65035 -5.85507,15.0857 h 11.68022 z"
         id="text2-7-5"
         aria-label="EURA" /></g></g></svg>
