<?xml version="1.0" encoding="UTF-8" standalone="no"?>
<!-- Created with Inkscape (http://www.inkscape.org/) -->

<svg
   width="28.294025mm"
   height="41.189075mm"
   viewBox="0 0 106.93805 155.67525"
   version="1.1"
   id="svg1"
   xml:space="preserve"
   sodipodi:docname="drawing.svg"
   inkscape:version="1.3.2 (091e20e, 2023-11-25, custom)"
   xmlns:inkscape="http://www.inkscape.org/namespaces/inkscape"
   xmlns:sodipodi="http://sodipodi.sourceforge.net/DTD/sodipodi-0.dtd"
   xmlns="http://www.w3.org/2000/svg"
   xmlns:svg="http://www.w3.org/2000/svg"><sodipodi:namedview
     id="namedview1"
     pagecolor="#505050"
     bordercolor="#eeeeee"
     borderopacity="1"
     inkscape:showpageshadow="0"
     inkscape:pageopacity="0"
     inkscape:pagecheckerboard="0"
     inkscape:deskcolor="#d1d1d1"
     inkscape:document-units="mm"
     showguides="true"
     inkscape:zoom="1"
     inkscape:cx="336"
     inkscape:cy="754.5"
     inkscape:window-width="1920"
     inkscape:window-height="1017"
     inkscape:window-x="1072"
     inkscape:window-y="418"
     inkscape:window-maximized="1"
     inkscape:current-layer="layer4" /><defs
     id="defs1" /><g
     inkscape:groupmode="layer"
     id="layer4"
     inkscape:label="Layer 2"
     transform="translate(-411.68037,-948.70762)"><g
       id="g14"
       transform="matrix(0.87820185,0,0,0.87820185,3.311415,131.35489)"><path
         style="font-weight:bold;font-size:40px;line-height:1.25;font-family:'Century Gothic';-inkscape-font-specification:'Century Gothic Bold';letter-spacing:6px;word-spacing:0px;white-space:pre;fill:#383355;fill-opacity:1;stroke-width:4.08023"
         d="m 526.12955,930.71167 q 24.8639,0 42.7149,18.01038 17.9307,18.0104 17.9307,43.91029 0,25.66086 -17.69162,43.43216 -17.61193,17.7713 -42.7946,17.7713 -26.37805,0 -43.83059,-18.2495 -17.45255,-18.2494 -17.45255,-43.35242 0,-16.81501 8.12858,-30.92049 8.12859,-14.10548 22.31376,-22.31376 14.26487,-8.28796 30.68142,-8.28796 z m -0.23908,21.8356 q -16.25717,0 -27.33435,11.31626 -11.07718,11.31627 -11.07718,28.76881 0,19.44486 13.94609,30.76106 10.83811,8.8459 24.8639,8.8459 15.85871,0 27.01559,-11.4757 11.15688,-11.4756 11.15688,-28.29064 0,-16.73532 -11.23658,-28.29066 -11.23657,-11.63503 -27.33435,-11.63503 z"
         id="text1-7-6-1-5-7"
         aria-label="O" /><path
         style="font-weight:bold;font-size:40px;line-height:1.25;font-family:'Century Gothic';-inkscape-font-specification:'Century Gothic Bold';letter-spacing:6px;word-spacing:0px;white-space:pre;fill:#b07c9e;fill-opacity:1;stroke-width:4.23957"
         d="m 539.43006,999.66984 -17.14045,15.15316 q -9.02565,-12.5862 -18.38252,-12.5862 -4.55422,0 -7.45237,2.4841 -2.89814,2.4013 -2.89814,5.4651 0,3.0637 2.0701,5.7962 2.81534,3.6434 16.97485,15.65 13.24866,11.0958 16.064,13.9939 7.03835,7.1212 9.93649,13.6627 2.98095,6.4587 2.98095,14.1595 0,14.9876 -10.35051,24.7584 -10.35052,9.7709 -26.99415,9.7709 -13.00025,0 -22.68833,-6.3759 -9.60528,-6.3759 -16.47802,-20.0386 l 19.45897,-11.7582 q 8.77724,16.1468 20.2042,16.1468 5.9619,0 10.0193,-3.4777 4.0574,-3.4778 4.0574,-8.032 0,-4.1402 -3.06375,-8.2805 -3.06375,-4.1402 -13.49707,-12.669 -19.87299,-16.2296 -25.66928,-25.0068 -5.79629,-8.8601 -5.79629,-17.6373 0,-12.66904 9.60528,-21.69469 9.68809,-9.10845 23.84759,-9.10845 9.10846,0 17.30606,4.22301 8.28042,4.22301 17.88569,15.40157 z"
         id="text1-4-8-1-9-7"
         aria-label="S" /></g></g></svg>
