<?xml version="1.0" encoding="UTF-8" standalone="no"?>
<!-- Created with Inkscape (http://www.inkscape.org/) -->

<svg
   width="28.294031mm"
   height="41.189075mm"
   viewBox="0 0 106.93807 155.67525"
   version="1.1"
   id="svg1"
   xml:space="preserve"
   xmlns="http://www.w3.org/2000/svg"
   xmlns:svg="http://www.w3.org/2000/svg"><defs
     id="defs1" /><g
     id="layer4"
     transform="translate(-10.891276,-948.7191)"><g
       id="g11"
       style="fill:#b07c9e;fill-opacity:1"
       transform="matrix(0.87820185,0,0,0.87820185,1.2405373,339.24697)"><path
         style="font-weight:bold;font-size:40px;line-height:1.25;font-family:'Century Gothic';-inkscape-font-specification:'Century Gothic Bold';letter-spacing:6px;word-spacing:0px;white-space:pre;fill:#b07c9e;fill-opacity:1;stroke-width:4.08023"
         d="m 72.11296,694 q 24.8639,0 42.7149,18.01038 17.9307,18.0104 17.9307,43.91029 0,25.66082 -17.69162,43.43213 -17.61193,17.77132 -42.7946,17.77132 -26.378048,0 -43.83059,-18.24947 -17.452548,-18.24946 -17.452548,-43.35244 0,-16.81501 8.128581,-30.92049 8.128588,-14.10548 22.31376,-22.31376 Q 55.69641,694 72.11296,694 Z m -0.23908,21.8356 q -16.25717,0 -27.33435,11.31626 -11.077185,11.31627 -11.077185,28.76881 0,19.44484 13.946099,30.76111 10.838106,8.84581 24.863896,8.84581 15.85871,0 27.01559,-11.47565 11.15688,-11.47565 11.15688,-28.29065 0,-16.73532 -11.23658,-28.29066 Q 87.97166,715.8356 71.87388,715.8356 Z"
         id="text1-7-6"
         aria-label="O" /><path
         style="font-weight:bold;font-size:40px;line-height:1.25;font-family:'Century Gothic';-inkscape-font-specification:'Century Gothic Bold';letter-spacing:6px;word-spacing:0px;white-space:pre;fill:#b07c9e;fill-opacity:1;stroke-width:4.23957"
         d="M 85.41347,762.95817 68.27302,778.11133 Q 59.24737,765.5251 49.8905,765.5251 q -4.55422,0 -7.452368,2.48412 -2.898142,2.40132 -2.898142,5.46507 0,3.06375 2.070099,5.79629 2.815344,3.64338 16.974851,15.64998 13.24866,11.09575 16.064,13.9939 7.03835,7.12115 9.93649,13.66268 2.98095,6.45872 2.98095,14.15951 0,14.98754 -10.35051,24.75843 -10.35052,9.77088 -26.99415,9.77088 -13.000249,0 -22.688332,-6.37591 -9.605278,-6.37592 -16.478017,-20.0386 l 19.45897,-11.75819 q 8.777236,16.14681 20.204199,16.14681 5.9619,0 10.0193,-3.47777 4.0574,-3.47778 4.0574,-8.03201 0,-4.1402 -3.06375,-8.28041 -3.06375,-4.1402 -13.49707,-12.66903 -19.872989,-16.22961 -25.669279,-25.00684 -5.796291,-8.86005 -5.796291,-17.63728 0,-12.66904 9.605279,-21.69469 9.688089,-9.10845 23.847591,-9.10845 9.10846,0 17.30606,4.22301 8.28042,4.22301 17.88569,15.40157 z"
         id="text1-4-8"
         aria-label="S" /></g></g></svg>
